<svg width="18" height="18" viewBox="0 0 18 18" fill="none" xmlns="http://www.w3.org/2000/svg">
<path d="M8.33005 7.38426L9.64867 1.88953C9.6543 1.51889 10.3641 1 10.9673 1C12.5344 1 12.7254 1.88953 12.7254 1.88953L13.8023 7.38426M3.52917 7.38426H14.9076C15.2717 7.38426 16 7.38426 16 8.23817C16 9.09211 15.6945 9.51914 14.9076 10.1948C13.8462 10.9239 11.6458 11.5621 11.6458 13.27C11.6458 15.4049 13.513 16.9884 11.6923 16.9884H6.23015C5.866 16.9884 5.23686 17.1982 5.81949 15.8319C6.54777 14.1239 6.91192 14.1239 6.18363 13.27C5.45535 12.416 3.52917 12.081 3.16502 10.8001L2.80088 9.51914C2.43674 9.37681 1.78128 8.92137 2.0726 8.23821C2.43674 7.38426 3.16507 7.38426 3.52917 7.38426Z" stroke="#949393"/>
</svg>
