<svg width="21" height="21" viewBox="0 0 21 21" fill="none" xmlns="http://www.w3.org/2000/svg">
<path d="M10.5124 1.74902C5.67994 1.74902 1.76239 5.6664 1.76239 10.499C1.76239 15.3316 5.67985 19.249 10.5124 19.249C15.3448 19.249 19.2624 15.3316 19.2624 10.499C19.2624 5.6664 15.3448 1.74902 10.5124 1.74902ZM10.5124 3.49902C14.3784 3.49902 17.5124 6.63327 17.5124 10.499C17.5124 14.3648 14.3784 17.499 10.5124 17.499C6.64638 17.499 3.51239 14.3648 3.51239 10.499C3.51239 6.63327 6.64638 3.49902 10.5124 3.49902Z" fill="white" fill-opacity="0.4"/>
<path fill-rule="evenodd" clip-rule="evenodd" d="M10.5 5.25C10.9832 5.25 11.375 5.64175 11.375 6.125V10.1376L13.7437 12.5063C14.0854 12.848 14.0854 13.402 13.7437 13.7437C13.402 14.0854 12.848 14.0854 12.5063 13.7437L9.88128 11.1187C9.71719 10.9546 9.625 10.7321 9.625 10.5V6.125C9.625 5.64175 10.0168 5.25 10.5 5.25Z" fill="white"/>
</svg>
