<svg width="21" height="21" viewBox="0 0 21 21" fill="none" xmlns="http://www.w3.org/2000/svg">
<path d="M10.5122 1.74902C5.67976 1.74902 1.76221 5.6664 1.76221 10.499C1.76221 15.3316 5.67967 19.249 10.5122 19.249C15.3447 19.249 19.2622 15.3316 19.2622 10.499C19.2622 5.6664 15.3447 1.74902 10.5122 1.74902ZM10.5122 3.49902C14.3782 3.49902 17.5122 6.63327 17.5122 10.499C17.5122 14.3648 14.3782 17.499 10.5122 17.499C6.64619 17.499 3.51221 14.3648 3.51221 10.499C3.51221 6.63327 6.64619 3.49902 10.5122 3.49902Z" fill="black" fill-opacity="0.4"/>
<path fill-rule="evenodd" clip-rule="evenodd" d="M10.5 5.25C10.9832 5.25 11.375 5.64175 11.375 6.125V10.1376L13.7437 12.5063C14.0854 12.848 14.0854 13.402 13.7437 13.7437C13.402 14.0854 12.848 14.0854 12.5063 13.7437L9.88128 11.1187C9.71719 10.9546 9.625 10.7321 9.625 10.5V6.125C9.625 5.64175 10.0168 5.25 10.5 5.25Z" fill="black"/>
</svg>
