<svg width="20" height="20" viewBox="0 0 20 20" fill="none" xmlns="http://www.w3.org/2000/svg">
<g clip-path="url(#clip0_203_448)">
<path d="M13.3335 5.83337C12.8335 5.83337 12.5002 6.16671 12.5002 6.66671C11.8335 6.16671 10.9168 5.83337 10.0002 5.83337C7.66683 5.83337 5.8335 7.66671 5.8335 10C5.8335 12.3334 7.66683 14.1667 10.0002 14.1667C11.4168 14.1667 12.6668 13.4167 13.4168 12.3334C14.0002 12.9167 14.8335 13.3334 15.8335 13.3334C17.6668 13.3334 19.1668 11.8334 19.1668 10C19.1668 4.91671 15.0835 0.833374 10.0002 0.833374C4.91683 0.833374 0.833496 4.91671 0.833496 10C0.833496 15.0834 4.91683 19.1667 10.0002 19.1667C12.1668 19.1667 14.3335 18.4167 16.0002 16.9167C16.3335 16.5834 16.4168 16.0834 16.0835 15.75C15.7502 15.4167 15.2502 15.3334 14.9168 15.6667C13.5002 16.8334 11.8335 17.5 10.0002 17.5C5.8335 17.5 2.50016 14.1667 2.50016 10C2.50016 5.83337 5.8335 2.50004 10.0002 2.50004C14.1668 2.50004 17.5002 5.83337 17.5002 10C17.5002 10.9167 16.7502 11.6667 15.8335 11.6667C14.9168 11.6667 14.1668 10.9167 14.1668 10V6.66671C14.1668 6.16671 13.8335 5.83337 13.3335 5.83337ZM10.0002 12.5C8.5835 12.5 7.50016 11.4167 7.50016 10C7.50016 8.58337 8.5835 7.50004 10.0002 7.50004C11.4168 7.50004 12.5002 8.58337 12.5002 10C12.5002 11.4167 11.4168 12.5 10.0002 12.5Z" fill="#8F8F8F"/>
</g>
<defs>
<clipPath id="clip0_203_448">
<rect width="20" height="20" fill="white"/>
</clipPath>
</defs>
</svg>
