<svg width="127" height="80" viewBox="0 0 127 80" fill="none" xmlns="http://www.w3.org/2000/svg">
<g clip-path="url(#clip0_114_5097)">
<path d="M63.5002 54.6H53.2002V78.2H63.5002V54.6Z" stroke="#EFAD81" stroke-width="2.8346" stroke-miterlimit="10"/>
<path d="M63.5002 31.7H53.2002V44.8H63.5002V31.7Z" stroke="#EFAD81" stroke-width="2.8346" stroke-miterlimit="10"/>
<path d="M53.2002 36.6H63.4002" stroke="#EFAD81" stroke-width="2.8346" stroke-miterlimit="10"/>
<path d="M81.2004 31.7H70.9004V44.8H81.2004V31.7Z" stroke="#EFAD81" stroke-width="2.8346" stroke-miterlimit="10"/>
<path d="M70.9004 36.6H81.2004" stroke="#EFAD81" stroke-width="2.8346" stroke-miterlimit="10"/>
<path d="M81.2004 54.6H70.9004V67.7H81.2004V54.6Z" stroke="#EFAD81" stroke-width="2.8346" stroke-miterlimit="10"/>
<path d="M72.2998 59.5H79.7998" stroke="#EFAD81" stroke-width="2.8346" stroke-miterlimit="10"/>
<path d="M63.4004 66.4H59.9004" stroke="#EFAD81" stroke-width="2.8346" stroke-miterlimit="10"/>
<path d="M90.9004 78.2V28.2L67.2004 8.8L43.4004 28.2V78.2" stroke="#EFAD81" stroke-width="2.8346" stroke-miterlimit="10"/>
<path d="M43.4002 41.4H5.7002V78.2" stroke="#EFAD81" stroke-width="2.8346" stroke-miterlimit="10"/>
<path d="M96.7002 25.9L67.2002 1.8L37.7002 25.9" stroke="#EFAD81" stroke-width="2.8346" stroke-miterlimit="10"/>
<path d="M125.7 43.5L106 27.4L91.2002 39.9" stroke="#EFAD81" stroke-width="2.8346" stroke-miterlimit="10"/>
<path d="M46.4004 18.8V6.2H53.2004V13.3" stroke="#EFAD81" stroke-width="2.8346" stroke-miterlimit="10"/>
<path d="M43.4004 62.5H15.4004V68.4V78.2" stroke="#EFAD81" stroke-width="2.8346" stroke-miterlimit="10"/>
<path d="M25.0996 62.5V78.2" stroke="#EFAD81" stroke-width="2.8346" stroke-miterlimit="10"/>
<path d="M34.5 62.5V78.2" stroke="#EFAD81" stroke-width="2.8346" stroke-miterlimit="10"/>
<path d="M5.7002 62.5H16.5002" stroke="#EFAD81" stroke-width="2.8346" stroke-miterlimit="10"/>
<path d="M5.7002 41.4V34.8H43.4002" stroke="#EFAD81" stroke-width="2.8346" stroke-miterlimit="10"/>
<path d="M1.90039 78.2H98.3004H120.7V47L106 34.8L90.9004 47.2" stroke="#EFAD81" stroke-width="2.8346" stroke-miterlimit="10"/>
<path d="M111.2 54.6H100.9V67.7H111.2V54.6Z" stroke="#EFAD81" stroke-width="2.8346" stroke-miterlimit="10"/>
<path d="M102.3 59.5H109.7" stroke="#EFAD81" stroke-width="2.8346" stroke-miterlimit="10"/>
<path d="M120.7 78.2H124.7" stroke="#EFAD81" stroke-width="2.8346" stroke-miterlimit="10"/>
</g>
<defs>
<clipPath id="clip0_114_5097">
<rect width="126.6" height="79.6" fill="white"/>
</clipPath>
</defs>
</svg>
