<svg width="33" height="40" viewBox="0 0 33 40" fill="none" xmlns="http://www.w3.org/2000/svg">
<g clip-path="url(#clip0_114_5065)">
<g clip-path="url(#clip1_114_5065)">
<g clip-path="url(#clip2_114_5065)">
<path fill-rule="evenodd" clip-rule="evenodd" d="M32.1441 36.6667V10.7837C32.1441 10.1677 31.9106 9.57343 31.4883 9.11481L24.6281 1.66447C24.141 1.13554 23.4459 0.833333 22.7163 0.833333H3.42347C2.00542 0.833333 0.855867 1.95262 0.855867 3.33333V36.6667C0.855867 38.0474 2.00542 39.1667 3.42347 39.1667H29.5765C30.9946 39.1667 32.1441 38.0474 32.1441 36.6667ZM3.42347 0C1.53274 0 0 1.49238 0 3.33333V36.6667C0 38.5076 1.53274 40 3.42347 40H29.5765C31.4673 40 33 38.5076 33 36.6667V10.7837C33 9.96239 32.6886 9.17002 32.1255 8.55852L25.2653 1.10818C24.6159 0.402948 23.6891 0 22.7163 0H3.42347Z" fill="#A32829"/>
<path fill-rule="evenodd" clip-rule="evenodd" d="M9.9866 29.5587V27.2118H10.7382C10.7514 27.2118 10.7645 27.2119 10.7776 27.212C10.9038 27.2137 11.0206 27.2238 11.1277 27.2425C11.6901 27.3406 11.9836 27.6771 11.9659 28.2984C11.9655 28.3127 11.965 28.3271 11.9642 28.3417C11.9642 28.9967 11.6657 29.3783 11.1277 29.5081C10.9874 29.542 10.8308 29.5587 10.659 29.5587M12.7223 29.0638C12.4479 29.9082 11.6889 30.3412 10.659 30.3412H10.026V33.0359H9.19531L9.19558 26.3859H10.7776C11.7641 26.3859 12.4623 26.8083 12.7223 27.5708C12.7959 27.7867 12.8344 28.0298 12.8344 28.2984C12.8344 28.3129 12.8343 28.3273 12.8341 28.3417C12.8339 28.3556 12.8337 28.3695 12.8333 28.3832C12.8263 28.6337 12.7883 28.8606 12.7223 29.0638ZM13.8635 32.9925H15.5641C15.5774 32.9925 15.5907 32.9925 15.6039 32.9924C17.6593 32.9755 18.752 31.6524 18.7681 29.7324C18.7682 29.718 18.7683 29.7036 18.7683 29.6891C18.7683 27.7455 17.7137 26.4028 15.6433 26.386C15.6302 26.3859 15.6171 26.3859 15.6039 26.3859H13.8635V32.9925ZM14.694 32.21H15.6039C15.6827 32.21 15.7598 32.2076 15.8351 32.2028C17.1585 32.1187 17.9375 31.2952 17.9375 29.7324C17.9375 29.7179 17.9375 29.7035 17.9373 29.6891C17.9227 28.1024 17.0997 27.2906 15.8351 27.2172C15.7723 27.2136 15.7083 27.2118 15.6433 27.2118H14.694V32.21ZM19.9947 26.3859H23.1193V27.2118H20.8252V29.2546H22.6448L22.7634 30.0805H20.8252V33.0359H19.9944L19.9947 26.3859Z" fill="#A32829"/>
<path fill-rule="evenodd" clip-rule="evenodd" d="M10.9565 19.6756C10.824 19.7749 10.7075 19.8709 10.6101 19.9615C10.6042 19.967 10.5984 19.9724 10.5927 19.9778C10.4192 20.142 10.3095 20.2883 10.2819 20.4056C10.2819 20.4127 10.2819 20.4198 10.2829 20.4273C10.2841 20.4376 10.2871 20.4486 10.2942 20.4615C10.2995 20.4713 10.3072 20.482 10.3182 20.4943C10.3244 20.5012 10.3316 20.5087 10.3401 20.5166C10.342 20.5184 10.3439 20.5201 10.3458 20.5219C10.4355 20.5833 10.5096 20.6015 10.6011 20.5968C10.6397 20.5949 10.6815 20.5888 10.7289 20.5802C10.7366 20.5785 10.7445 20.5767 10.7523 20.5748C10.7573 20.5736 10.7623 20.5723 10.7673 20.571C10.7735 20.5693 10.7797 20.5676 10.786 20.5658L10.7879 20.5653L10.7905 20.5645C10.8172 20.5568 10.8442 20.5476 10.8716 20.537C10.8769 20.535 10.8823 20.5329 10.8876 20.5307C10.9649 20.4996 11.0449 20.4578 11.1275 20.4056C11.2155 20.3501 11.3065 20.283 11.4003 20.2048C11.579 20.0558 11.7679 19.8668 11.9656 19.6419C12.0537 19.5417 12.1435 19.4344 12.235 19.3204C12.4083 19.1042 12.5876 18.8638 12.7719 18.6017C12.523 18.7234 12.2822 18.8493 12.0547 18.9763C11.9505 19.0344 11.8491 19.0928 11.7511 19.151C11.4502 19.3297 11.1805 19.5075 10.9565 19.6756ZM12.2097 18.2268C12.3065 18.1767 12.4041 18.1273 12.5022 18.0787C12.5152 18.0723 12.5282 18.0659 12.5412 18.0594C12.5488 18.0557 12.5563 18.052 12.5638 18.0484C12.5847 18.0381 12.6056 18.0279 12.6265 18.0177C12.8071 17.9299 12.9884 17.8451 13.168 17.7641C13.2385 17.7323 13.3087 17.7011 13.3785 17.6705C13.4287 17.5891 13.4779 17.5069 13.5265 17.4236C13.603 17.2925 13.678 17.1587 13.7527 17.0218C13.7652 16.9989 13.7776 16.976 13.7901 16.9529C13.8523 16.838 13.9144 16.7209 13.9773 16.6011C14.0438 16.4743 14.1112 16.3446 14.1804 16.2115C14.1897 16.1935 14.1991 16.1755 14.2085 16.1574C14.2128 16.1485 14.2171 16.1397 14.2214 16.1308C14.2235 16.1266 14.2255 16.1224 14.2276 16.1181L14.2284 16.1164C14.3481 15.8697 14.4616 15.6259 14.5687 15.3849C14.6083 15.2959 14.647 15.2073 14.6848 15.1191C14.7229 15.0304 14.7601 14.9421 14.7964 14.8542C14.8339 14.7633 14.8705 14.6729 14.9062 14.5828C14.9157 14.559 14.925 14.5352 14.9344 14.5115C14.9731 14.4126 15.0107 14.3143 15.0472 14.2165C15.0883 14.1063 15.128 13.9967 15.1662 13.8878C15.1334 13.8059 15.1018 13.7235 15.0714 13.6408C15.0064 13.4636 14.947 13.2848 14.8937 13.1063C14.8883 13.0882 14.883 13.0701 14.8777 13.0521C14.8743 13.0404 14.871 13.0288 14.8676 13.0171C14.8371 12.9111 14.8088 12.8052 14.7827 12.6998C14.6727 12.2566 14.6017 11.8227 14.5745 11.425C14.5319 10.8047 14.5956 10.2726 14.7832 9.93064L14.7847 9.92776C14.9852 9.53886 15.2872 9.45204 15.4853 9.43824C15.5082 9.43665 15.5296 9.43604 15.5494 9.43604C15.808 9.43604 16.0149 9.53024 16.1701 9.71883C16.1874 9.73976 16.204 9.76186 16.2199 9.78512L16.2222 9.78846C16.5044 10.2042 16.518 10.9768 16.3625 11.8884C16.32 12.1374 16.265 12.3968 16.1993 12.6621C16.1677 12.7898 16.1336 12.9189 16.0973 13.0489C16.0931 13.0639 16.0889 13.0788 16.0847 13.0938C16.0636 13.1683 16.0418 13.2431 16.0194 13.3181C15.9916 13.4107 15.9629 13.5035 15.9332 13.5963C15.9021 13.6935 15.87 13.7907 15.8369 13.8878C15.8761 13.9772 15.9169 14.0652 15.9591 14.1518C15.9989 14.2332 16.0399 14.3133 16.0823 14.392C16.1031 14.4306 16.1242 14.4689 16.1457 14.5068C16.1471 14.5093 16.1485 14.5118 16.15 14.5144C16.2568 14.7028 16.3716 14.8826 16.4943 15.0525C16.5107 15.0752 16.5273 15.0977 16.5439 15.1201C16.6041 15.2006 16.6661 15.2789 16.7299 15.3547C16.7364 15.3624 16.743 15.3702 16.7496 15.3779C16.7645 15.3954 16.7795 15.4128 16.7947 15.43C16.8094 15.4459 16.8243 15.4617 16.8393 15.4775C16.8634 15.503 16.8878 15.5282 16.9124 15.5534C17.0409 15.6844 17.1764 15.8113 17.3163 15.933C17.3403 15.954 17.3645 15.9748 17.3888 15.9954C17.4152 16.0178 17.4417 16.04 17.4683 16.062C17.5296 16.1126 17.5915 16.1622 17.6538 16.2106C17.7604 16.2934 17.8681 16.3729 17.9758 16.4485C18.0581 16.4368 18.1403 16.4257 18.2224 16.4151C18.3778 16.3951 18.5326 16.377 18.6862 16.3611C18.6921 16.3605 18.6979 16.3599 18.7038 16.3593C18.7273 16.3569 18.7507 16.3545 18.7741 16.3522C18.876 16.3422 18.9773 16.3331 19.0778 16.325C19.4038 16.2989 19.7212 16.2835 20.0229 16.2808C20.9769 16.2725 21.7748 16.3912 22.1983 16.6979C22.2067 16.7039 22.2149 16.7101 22.2229 16.7163C22.2449 16.7331 22.2657 16.7506 22.2855 16.7685C22.4947 16.9592 22.592 17.2261 22.4989 17.5219C22.4934 17.5392 22.4873 17.5567 22.4806 17.5742C22.4794 17.5772 22.4782 17.5802 22.477 17.5833C22.3812 17.8451 22.1577 18.1651 21.5831 18.2524C21.5737 18.2541 21.5643 18.2558 21.5548 18.2574C21.0295 18.3445 20.3375 18.2276 19.6064 17.9669C19.3453 17.8738 19.0792 17.7623 18.8138 17.6353C18.721 17.5908 18.6282 17.5444 18.5358 17.4963C18.518 17.487 18.5002 17.4777 18.4824 17.4682C18.4678 17.4605 18.4531 17.4527 18.4385 17.4449C18.3234 17.3831 18.2089 17.3186 18.0956 17.2516C17.9907 17.1897 17.8868 17.1255 17.7842 17.0594C17.6868 17.0736 17.5885 17.0891 17.4893 17.1058C17.3875 17.1229 17.2849 17.1413 17.1815 17.1608C17.1463 17.1675 17.1111 17.1742 17.0758 17.1811C17.0297 17.1901 16.9835 17.1994 16.9372 17.2088C16.7982 17.237 16.6581 17.2672 16.5171 17.2989C16.4341 17.3176 16.3508 17.3368 16.2673 17.3566C15.9835 17.4236 15.697 17.4963 15.4101 17.5727C15.3609 17.5858 15.3117 17.599 15.2624 17.6123C15.2482 17.6169 15.2339 17.6216 15.2195 17.6263C15.2141 17.6281 15.2087 17.6299 15.2033 17.6317C15.1474 17.6501 15.0909 17.6689 15.034 17.6883C14.8902 17.7371 14.7433 17.7887 14.5932 17.8432C14.5686 17.8522 14.544 17.8612 14.5193 17.8702C14.361 17.9283 14.1993 17.9895 14.0341 18.0539C13.9653 18.0807 13.8959 18.108 13.826 18.1359C13.7829 18.2082 13.7389 18.2808 13.6942 18.3535C13.5919 18.52 13.4854 18.6872 13.3754 18.8525C13.3735 18.8553 13.3717 18.8581 13.3698 18.8609C13.3571 18.8801 13.3443 18.8992 13.3314 18.9183C13.3227 18.9312 13.3139 18.9442 13.3051 18.9572C13.2393 19.0543 13.1722 19.1506 13.1041 19.2456C12.9113 19.5144 12.7101 19.7723 12.5031 20.0076C11.9859 20.5955 11.4332 21.0418 10.889 21.1619C10.8795 21.1619 10.87 21.1622 10.8606 21.1628C10.854 21.1631 10.8475 21.1636 10.841 21.1641C10.809 21.1669 10.777 21.1718 10.745 21.1766C10.697 21.184 10.649 21.1913 10.6011 21.1913C10.3894 21.1913 10.178 21.1391 9.99367 21.0101C9.98326 21.0028 9.97293 20.9953 9.96269 20.9875C9.94987 20.9787 9.93744 20.9698 9.92542 20.9608C9.72502 20.8098 9.63652 20.619 9.65992 20.4056C9.66307 20.3769 9.66824 20.3478 9.67544 20.3183C9.6783 20.3032 9.68172 20.288 9.68568 20.2727C9.80451 19.8144 10.4121 19.2917 11.2053 18.7952C11.5175 18.5998 11.8585 18.4085 12.2097 18.2268ZM15.0327 17.0319C15.0347 17.0314 15.0366 17.0308 15.0386 17.0303C15.0459 17.0282 15.0531 17.0262 15.0604 17.0241C15.071 17.021 15.0816 17.018 15.0922 17.015C15.1865 16.9881 15.283 16.9613 15.3814 16.9347C15.4116 16.9266 15.442 16.9184 15.4725 16.9103C15.534 16.8941 15.5962 16.8779 15.659 16.8619C15.6685 16.8595 15.6781 16.8571 15.6876 16.8547C15.6903 16.854 15.693 16.8533 15.6957 16.8526C15.7313 16.8436 15.7672 16.8347 15.8033 16.8258C15.9007 16.8019 15.9996 16.7784 16.0998 16.7556C16.2185 16.7286 16.3389 16.7025 16.4609 16.6776C16.6642 16.6361 16.8716 16.5981 17.0817 16.5647C16.9033 16.4347 16.735 16.2956 16.5766 16.1475C16.5306 16.1044 16.4855 16.0607 16.4412 16.0161C16.3926 15.9672 16.345 15.9174 16.2984 15.8667C16.2943 15.8622 16.2902 15.8578 16.2862 15.8533C16.2788 15.8453 16.2715 15.8372 16.2642 15.8291C16.2493 15.8125 16.2344 15.7958 16.2197 15.7791C16.1775 15.7262 16.1353 15.6725 16.0932 15.6179C16.0301 15.536 15.9673 15.4519 15.9052 15.3653C15.8862 15.3388 15.8673 15.312 15.8485 15.2849C15.7219 15.1034 15.5995 14.9106 15.4853 14.7026C15.4167 14.8903 15.345 15.0753 15.2713 15.2558C15.2 15.4302 15.1268 15.6005 15.0525 15.7652C15.0343 15.8056 15.016 15.8457 14.9976 15.8854C14.983 15.917 14.9684 15.9482 14.9538 15.9793C14.9107 16.0706 14.8674 16.1599 14.824 16.2468C14.8192 16.2564 14.8144 16.266 14.8095 16.2756C14.7901 16.3143 14.7706 16.3525 14.7512 16.3902C14.7486 16.395 14.7459 16.3997 14.7433 16.4046C14.741 16.4088 14.7387 16.4131 14.7363 16.4174C14.6971 16.4896 14.655 16.5695 14.6099 16.6556C14.5939 16.6861 14.5776 16.7175 14.5608 16.7496C14.4745 16.915 14.3783 17.0991 14.2724 17.2921C14.5571 17.1769 14.8105 17.0899 15.0327 17.0319ZM18.7415 16.914C19.0136 17.0613 19.2901 17.1899 19.5603 17.2972C19.649 17.3324 19.737 17.3654 19.824 17.3959C20.173 17.5185 20.5048 17.6025 20.7946 17.6416C20.9878 17.6677 21.1623 17.6739 21.3108 17.6584C21.3293 17.6565 21.3474 17.6542 21.3651 17.6516C21.385 17.6486 21.4043 17.6453 21.423 17.6415C21.4371 17.6386 21.4507 17.6355 21.4639 17.6323C21.4704 17.6307 21.4767 17.629 21.483 17.6274C21.7142 17.5649 21.8013 17.4417 21.8342 17.3604C21.8356 17.357 21.8369 17.3537 21.8381 17.3504C21.8389 17.3476 21.8396 17.3449 21.8403 17.3422C21.8528 17.2927 21.8536 17.2541 21.8478 17.224C21.8406 17.1868 21.8234 17.1624 21.8063 17.1466C21.7001 17.0587 21.5179 16.9893 21.2731 16.9394C21.1373 16.9118 20.9819 16.89 20.8098 16.8744C20.5181 16.848 20.1775 16.8391 19.799 16.8485C19.6693 16.8518 19.5352 16.8571 19.397 16.8646C19.1873 16.8761 18.9682 16.8925 18.7415 16.914ZM15.4214 12.8695C15.463 12.7209 15.5009 12.5761 15.535 12.4356C15.6214 12.0793 15.6835 11.7504 15.7215 11.4568C15.7381 11.3283 15.7501 11.2065 15.7575 11.0921C15.7704 10.8905 15.7689 10.712 15.753 10.5602C15.7502 10.5333 15.7469 10.5072 15.7431 10.482C15.7403 10.4625 15.7371 10.4435 15.7337 10.4251L15.7329 10.4209C15.7308 10.41 15.7287 10.3993 15.7264 10.3888C15.7069 10.2974 15.6802 10.2201 15.6463 10.1581C15.6359 10.1391 15.6247 10.1214 15.6129 10.1053C15.594 10.0708 15.5751 10.0465 15.5494 10.0324C15.5319 10.0228 15.5113 10.018 15.4853 10.018C15.4542 10.018 15.3923 10.018 15.2999 10.1816C15.2979 10.1852 15.2959 10.1888 15.2938 10.1925L15.2922 10.1955C15.2755 10.2264 15.2601 10.26 15.246 10.2961C15.2357 10.3226 15.2262 10.3505 15.2173 10.3797C15.1619 10.5631 15.1354 10.7974 15.1363 11.067C15.137 11.3129 15.1604 11.588 15.2051 11.8805C15.2147 11.9432 15.2253 12.0066 15.2368 12.0707C15.2831 12.3285 15.3449 12.5973 15.4214 12.8695Z" fill="#A32829"/>
<path fill-rule="evenodd" clip-rule="evenodd" d="M22.6797 9.16668V0.833344H23.5356V9.16668C23.5356 9.85703 24.1104 10.4167 24.8194 10.4167H32.5222V11.25H24.8194C23.6377 11.25 22.6797 10.3173 22.6797 9.16668Z" fill="#A32829"/>
</g>
</g>
</g>
<defs>
<clipPath id="clip0_114_5065">
<rect width="33" height="40" fill="white"/>
</clipPath>
<clipPath id="clip1_114_5065">
<rect width="33" height="40" fill="white"/>
</clipPath>
<clipPath id="clip2_114_5065">
<rect width="33" height="40" fill="white"/>
</clipPath>
</defs>
</svg>
