<svg width="21" height="21" viewBox="0 0 21 21" fill="none" xmlns="http://www.w3.org/2000/svg">
<path d="M10.498 1.75C8.08182 1.75 6.12305 3.70913 6.12305 6.125C6.12305 6.944 6.50988 7.95112 7.2168 9.16037C7.45226 9.56287 7.74486 9.96012 8.03711 10.3906C8.43121 10.9716 8.84692 11.5701 9.2678 12.1135C9.36405 12.2369 9.49355 12.4093 9.62305 12.5781V14.875C9.62305 15.358 10.015 15.75 10.498 15.75C10.981 15.75 11.373 15.358 11.373 14.875V12.5781C11.5025 12.4093 11.632 12.2369 11.7283 12.1135C12.1492 11.571 12.5648 10.9716 12.9585 10.3906C13.2508 9.96012 13.5439 9.56287 13.7793 9.16037C14.4863 7.95112 14.873 6.944 14.873 6.125C14.873 3.70913 12.9139 1.75 10.498 1.75ZM10.498 3.5C11.9479 3.5 13.123 4.67512 13.123 6.125C13.123 6.5415 12.8072 7.30186 12.248 8.25824C12.0337 8.62399 11.8088 9.03351 11.5375 9.43338C11.2103 9.9155 10.8498 10.3688 10.498 10.8281C10.1463 10.3688 9.78667 9.9155 9.45854 9.43338C9.18729 9.03351 8.96242 8.62399 8.74805 8.25824C8.1891 7.30186 7.87305 6.5415 7.87305 6.125C7.87305 4.67512 9.04817 3.5 10.498 3.5Z" fill="black"/>
<path fill-rule="evenodd" clip-rule="evenodd" d="M10.5 7C10.9832 7 11.375 6.60825 11.375 6.125C11.375 5.64175 10.9832 5.25 10.5 5.25C10.0168 5.25 9.625 5.64175 9.625 6.125C9.625 6.60825 10.0168 7 10.5 7ZM3.5 15.3125C3.5 13.8416 4.76043 12.6551 6.69917 11.977C7.15531 11.8169 7.66071 12.0671 7.82031 12.523C7.97991 12.9798 7.72957 13.4575 7.27344 13.6168C5.957 14.0779 5.25 14.7595 5.25 15.3125C5.25 16.3555 7.53848 17.5 10.5 17.5C13.4619 17.5 15.75 16.3555 15.75 15.3125C15.75 14.7578 15.0211 14.0779 13.699 13.6168C13.2431 13.4584 13.0209 12.9798 13.1792 12.523C13.3385 12.0671 13.8171 11.8177 14.273 11.977C16.2181 12.6542 17.5 13.8381 17.5 15.3125C17.5 17.6523 14.3036 19.25 10.5 19.25C6.69602 19.25 3.5 17.6523 3.5 15.3125Z" fill="black" fill-opacity="0.4"/>
</svg>
