<svg width="30" height="30" viewBox="0 0 30 30" fill="none" xmlns="http://www.w3.org/2000/svg">
<g clip-path="url(#clip0_155_438)">
<path fill-rule="evenodd" clip-rule="evenodd" d="M18.6685 17.5884C18.5138 18.0225 17.7713 18.4181 17.4141 18.4715C17.0944 18.5193 16.6894 18.539 16.2441 18.3984C15.8847 18.2863 15.5314 18.1555 15.1856 18.0065C13.3219 17.2021 12.1041 15.3262 12.0113 15.2025C11.9185 15.0787 11.2528 14.1956 11.2528 13.2815C11.2528 12.3675 11.7328 11.9175 11.9035 11.7318C12.0731 11.5462 12.2747 11.4993 12.3985 11.4993C12.5222 11.4993 12.646 11.5003 12.7547 11.5059C12.8691 11.5115 13.0219 11.4628 13.1728 11.8246C13.3275 12.1968 13.6988 13.1109 13.7456 13.2037C13.7916 13.2965 13.8225 13.4053 13.7606 13.529C13.6988 13.6528 13.6678 13.7306 13.575 13.8393C13.4822 13.9471 13.38 14.0812 13.2966 14.1646C13.2038 14.2565 13.1063 14.3578 13.215 14.5434C13.3238 14.729 13.696 15.3375 14.2481 15.8296C14.9578 16.4625 15.5569 16.6584 15.7425 16.7521C15.9281 16.845 16.0369 16.829 16.1447 16.7053C16.2535 16.5815 16.6097 16.1634 16.7335 15.9768C16.8572 15.7912 16.981 15.8221 17.1516 15.884C17.3213 15.9459 18.2353 16.395 18.421 16.4887C18.6066 16.5815 18.7303 16.6275 18.7772 16.7053C18.8231 16.7831 18.8231 17.1543 18.6685 17.5884ZM15.0338 8.75527C11.625 8.75527 8.85189 11.5265 8.85095 14.9325C8.85095 16.0996 9.1772 17.2368 9.79595 18.2203L9.94314 18.4537L9.31876 20.7337L11.6578 20.1206L11.8828 20.2537C12.8349 20.8182 13.9214 21.1158 15.0281 21.1153H15.031C18.4369 21.1153 21.2091 18.344 21.211 14.9371C21.2134 14.1252 21.0549 13.3209 20.7444 12.5707C20.434 11.8205 19.9779 11.1393 19.4025 10.5665C18.8302 9.99077 18.1494 9.53423 17.3995 9.22333C16.6497 8.91243 15.8455 8.75334 15.0338 8.75527Z" fill="#67D449"/>
<path fill-rule="evenodd" clip-rule="evenodd" d="M15.0309 22.3706H15.0281C13.7831 22.3706 12.5606 22.0584 11.475 21.4659L7.53281 22.5L8.58844 18.6478C7.93627 17.518 7.5938 16.2361 7.59563 14.9316C7.5975 10.8337 10.9322 7.5 15.0309 7.5C16.0082 7.49713 16.9764 7.68833 17.8792 8.06249C18.782 8.43666 19.6016 8.98635 20.2903 9.67969C20.9827 10.3687 21.5315 11.1883 21.9051 12.0909C22.2786 12.9935 22.4693 13.9613 22.4663 14.9381C22.4644 19.0359 19.1287 22.3706 15.0309 22.3706ZM15 0C6.71531 0 0 6.71531 0 15C0 23.2838 6.71531 30 15 30C23.2838 30 30 23.2838 30 15C30 6.71531 23.2838 0 15 0Z" fill="#67D449"/>
</g>
<defs>
<clipPath id="clip0_155_438">
<rect width="30" height="30" fill="white"/>
</clipPath>
</defs>
</svg>
